# Blender v3.0.0 OBJ File: ''
# www.blender.org
o Cube
v 0.335000 0.335000 -0.500000
v 0.335000 0.500000 -0.335000
v 0.500000 0.335000 -0.335000
v 0.335000 0.417392 -0.477957
v 0.417392 0.335000 -0.477957
v 0.413905 0.413905 -0.456544
v 0.417392 0.477957 -0.335000
v 0.335000 0.477957 -0.417392
v 0.413905 0.456544 -0.413905
v 0.477957 0.335000 -0.417392
v 0.477957 0.417392 -0.335000
v 0.456544 0.413905 -0.413905
v 0.335000 -0.500000 -0.335000
v 0.335000 -0.335000 -0.500000
v 0.500000 -0.335000 -0.335000
v 0.335000 -0.477957 -0.417392
v 0.417392 -0.477957 -0.335000
v 0.413905 -0.456544 -0.413905
v 0.417392 -0.335000 -0.477957
v 0.335000 -0.417392 -0.477957
v 0.413905 -0.413905 -0.456544
v 0.477957 -0.417392 -0.335000
v 0.477957 -0.335000 -0.417392
v 0.456544 -0.413905 -0.413905
v 0.500000 0.335000 0.335000
v 0.335000 0.500000 0.335000
v 0.335000 0.335000 0.500000
v 0.477957 0.417392 0.335000
v 0.477957 0.335000 0.417392
v 0.456544 0.413905 0.413905
v 0.335000 0.477957 0.417392
v 0.417392 0.477957 0.335000
v 0.413905 0.456544 0.413905
v 0.417392 0.335000 0.477957
v 0.335000 0.417392 0.477957
v 0.413905 0.413905 0.456544
v 0.500000 -0.335000 0.335000
v 0.335000 -0.335000 0.500000
v 0.335000 -0.500000 0.335000
v 0.477957 -0.335000 0.417392
v 0.477957 -0.417392 0.335000
v 0.456544 -0.413905 0.413905
v 0.335000 -0.417392 0.477957
v 0.417392 -0.335000 0.477957
v 0.413905 -0.413905 0.456544
v 0.417392 -0.477957 0.335000
v 0.335000 -0.477957 0.417392
v 0.413905 -0.456544 0.413905
v -0.335000 0.335000 -0.500000
v -0.500000 0.335000 -0.335000
v -0.335000 0.500000 -0.335000
v -0.417392 0.335000 -0.477957
v -0.335000 0.417392 -0.477957
v -0.413905 0.413905 -0.456544
v -0.477957 0.417392 -0.335000
v -0.477957 0.335000 -0.417392
v -0.456544 0.413905 -0.413905
v -0.335000 0.477957 -0.417392
v -0.417392 0.477957 -0.335000
v -0.413905 0.456544 -0.413905
v -0.500000 -0.335000 -0.335000
v -0.335000 -0.335000 -0.500000
v -0.335000 -0.500000 -0.335000
v -0.477957 -0.335000 -0.417392
v -0.477957 -0.417392 -0.335000
v -0.456544 -0.413905 -0.413905
v -0.335000 -0.417392 -0.477957
v -0.417392 -0.335000 -0.477957
v -0.413905 -0.413905 -0.456544
v -0.417392 -0.477957 -0.335000
v -0.335000 -0.477957 -0.417392
v -0.413905 -0.456544 -0.413905
v -0.500000 0.335000 0.335000
v -0.335000 0.335000 0.500000
v -0.335000 0.500000 0.335000
v -0.477957 0.335000 0.417392
v -0.477957 0.417392 0.335000
v -0.456544 0.413905 0.413905
v -0.335000 0.417392 0.477957
v -0.417392 0.335000 0.477957
v -0.413905 0.413905 0.456544
v -0.417392 0.477957 0.335000
v -0.335000 0.477957 0.417392
v -0.413905 0.456544 0.413905
v -0.335000 -0.500000 0.335000
v -0.335000 -0.335000 0.500000
v -0.500000 -0.335000 0.335000
v -0.335000 -0.477957 0.417392
v -0.417392 -0.477957 0.335000
v -0.413905 -0.456544 0.413905
v -0.417392 -0.335000 0.477957
v -0.335000 -0.417392 0.477957
v -0.413905 -0.413905 0.456544
v -0.477957 -0.417392 0.335000
v -0.477957 -0.335000 0.417392
v -0.456544 -0.413905 0.413905
vn -0.1296 -0.9831 -0.1296
vn 0.1296 -0.9831 -0.1296
vn 0.1296 -0.9831 0.1296
vn -0.1296 -0.9831 0.1296
vn -0.9831 -0.1296 0.1296
vn -0.9831 0.1296 0.1296
vn -0.9831 0.1296 -0.1296
vn -0.9831 -0.1296 -0.1296
vn 0.1296 -0.1296 0.9831
vn 0.1296 0.1296 0.9831
vn -0.1296 0.1296 0.9831
vn -0.1296 -0.1296 0.9831
vn 0.1296 0.9831 -0.1296
vn -0.1296 0.9831 -0.1296
vn -0.1296 0.9831 0.1296
vn 0.1296 0.9831 0.1296
vn 0.9831 -0.1296 -0.1296
vn 0.9831 0.1296 -0.1296
vn 0.9831 0.1296 0.1296
vn 0.9831 -0.1296 0.1296
vn 0.1296 0.1296 -0.9831
vn 0.1216 0.4915 -0.8623
vn 0.4473 0.4473 -0.7744
vn 0.4915 0.1216 -0.8623
vn 0.1216 0.8623 -0.4915
vn 0.4473 0.7744 -0.4473
vn 0.4915 0.8623 -0.1216
vn 0.8623 0.4915 -0.1216
vn 0.7744 0.4473 -0.4473
vn 0.8623 0.1216 -0.4915
vn 0.1216 -0.8623 -0.4915
vn 0.4473 -0.7744 -0.4473
vn 0.4915 -0.8623 -0.1216
vn 0.1216 -0.4915 -0.8623
vn 0.4473 -0.4473 -0.7744
vn 0.1296 -0.1296 -0.9831
vn 0.4915 -0.1216 -0.8623
vn 0.8623 -0.1216 -0.4915
vn 0.7744 -0.4473 -0.4473
vn 0.8623 -0.4915 -0.1216
vn 0.8623 0.4915 0.1216
vn 0.7744 0.4473 0.4473
vn 0.8623 0.1216 0.4915
vn 0.4915 0.8623 0.1216
vn 0.4473 0.7744 0.4473
vn 0.1216 0.8623 0.4915
vn 0.1216 0.4915 0.8623
vn 0.4473 0.4473 0.7744
vn 0.4915 0.1216 0.8623
vn 0.8623 -0.1216 0.4915
vn 0.7744 -0.4473 0.4473
vn 0.8623 -0.4915 0.1216
vn 0.4915 -0.1216 0.8623
vn 0.4473 -0.4473 0.7744
vn 0.1216 -0.4915 0.8623
vn 0.1216 -0.8623 0.4915
vn 0.4473 -0.7744 0.4473
vn 0.4915 -0.8623 0.1216
vn -0.1296 0.1296 -0.9831
vn -0.4915 0.1216 -0.8623
vn -0.4473 0.4473 -0.7744
vn -0.1216 0.4915 -0.8623
vn -0.8623 0.1216 -0.4915
vn -0.7744 0.4473 -0.4473
vn -0.8623 0.4915 -0.1216
vn -0.4915 0.8623 -0.1216
vn -0.4473 0.7744 -0.4473
vn -0.1216 0.8623 -0.4915
vn -0.8623 -0.1216 -0.4915
vn -0.7744 -0.4473 -0.4473
vn -0.8623 -0.4915 -0.1216
vn -0.4915 -0.1216 -0.8623
vn -0.4473 -0.4473 -0.7744
vn -0.1296 -0.1296 -0.9831
vn -0.1216 -0.4915 -0.8623
vn -0.1216 -0.8623 -0.4915
vn -0.4473 -0.7744 -0.4473
vn -0.4915 -0.8623 -0.1216
vn -0.8623 0.1216 0.4915
vn -0.7744 0.4473 0.4473
vn -0.8623 0.4915 0.1216
vn -0.4915 0.1216 0.8623
vn -0.4473 0.4473 0.7744
vn -0.1216 0.4915 0.8623
vn -0.1216 0.8623 0.4915
vn -0.4473 0.7744 0.4473
vn -0.4915 0.8623 0.1216
vn -0.1216 -0.8623 0.4915
vn -0.4473 -0.7744 0.4473
vn -0.4915 -0.8623 0.1216
vn -0.1216 -0.4915 0.8623
vn -0.4473 -0.4473 0.7744
vn -0.4915 -0.1216 0.8623
vn -0.8623 -0.1216 0.4915
vn -0.7744 -0.4473 0.4473
vn -0.8623 -0.4915 0.1216
s 1
f 63//1 13//2 39//3 85//4
f 87//5 73//6 50//7 61//8
f 38//9 27//10 74//11 86//12
f 2//13 51//14 75//15 26//16
f 15//17 3//18 25//19 37//20
f 1//21 4//22 6//23 5//24
f 4//22 8//25 9//26 6//23
f 2//13 7//27 9//26 8//25
f 7//27 11//28 12//29 9//26
f 3//18 10//30 12//29 11//28
f 10//30 5//24 6//23 12//29
f 6//23 9//26 12//29
f 13//2 16//31 18//32 17//33
f 16//31 20//34 21//35 18//32
f 14//36 19//37 21//35 20//34
f 19//37 23//38 24//39 21//35
f 15//17 22//40 24//39 23//38
f 22//40 17//33 18//32 24//39
f 18//32 21//35 24//39
f 25//19 28//41 30//42 29//43
f 28//41 32//44 33//45 30//42
f 26//16 31//46 33//45 32//44
f 31//46 35//47 36//48 33//45
f 27//10 34//49 36//48 35//47
f 34//49 29//43 30//42 36//48
f 30//42 33//45 36//48
f 37//20 40//50 42//51 41//52
f 40//50 44//53 45//54 42//51
f 38//9 43//55 45//54 44//53
f 43//55 47//56 48//57 45//54
f 39//3 46//58 48//57 47//56
f 46//58 41//52 42//51 48//57
f 42//51 45//54 48//57
f 49//59 52//60 54//61 53//62
f 52//60 56//63 57//64 54//61
f 50//7 55//65 57//64 56//63
f 55//65 59//66 60//67 57//64
f 51//14 58//68 60//67 59//66
f 58//68 53//62 54//61 60//67
f 54//61 57//64 60//67
f 61//8 64//69 66//70 65//71
f 64//69 68//72 69//73 66//70
f 62//74 67//75 69//73 68//72
f 67//75 71//76 72//77 69//73
f 63//1 70//78 72//77 71//76
f 70//78 65//71 66//70 72//77
f 66//70 69//73 72//77
f 73//6 76//79 78//80 77//81
f 76//79 80//82 81//83 78//80
f 74//11 79//84 81//83 80//82
f 79//84 83//85 84//86 81//83
f 75//15 82//87 84//86 83//85
f 82//87 77//81 78//80 84//86
f 78//80 81//83 84//86
f 85//4 88//88 90//89 89//90
f 88//88 92//91 93//92 90//89
f 86//12 91//93 93//92 92//91
f 91//93 95//94 96//95 93//92
f 87//5 94//96 96//95 95//94
f 94//96 89//90 90//89 96//95
f 90//89 93//92 96//95
f 63//1 85//4 89//90 70//78
f 70//78 89//90 94//96 65//71
f 65//71 94//96 87//5 61//8
f 13//2 63//1 71//76 16//31
f 16//31 71//76 67//75 20//34
f 20//34 67//75 62//74 14//36
f 3//18 15//17 23//38 10//30
f 10//30 23//38 19//37 5//24
f 5//24 19//37 14//36 1//21
f 86//12 74//11 80//82 91//93
f 91//93 80//82 76//79 95//94
f 95//94 76//79 73//6 87//5
f 27//10 38//9 44//53 34//49
f 34//49 44//53 40//50 29//43
f 29//43 40//50 37//20 25//19
f 49//59 62//74 68//72 52//60
f 52//60 68//72 64//69 56//63
f 56//63 64//69 61//8 50//7
f 26//16 75//15 83//85 31//46
f 31//46 83//85 79//84 35//47
f 35//47 79//84 74//11 27//10
f 2//13 26//16 32//44 7//27
f 7//27 32//44 28//41 11//28
f 11//28 28//41 25//19 3//18
f 85//4 39//3 47//56 88//88
f 88//88 47//56 43//55 92//91
f 92//91 43//55 38//9 86//12
f 75//15 51//14 59//66 82//87
f 82//87 59//66 55//65 77//81
f 77//81 55//65 50//7 73//6
f 51//14 2//13 8//25 58//68
f 58//68 8//25 4//22 53//62
f 53//62 4//22 1//21 49//59
f 39//3 13//2 17//33 46//58
f 46//58 17//33 22//40 41//52
f 41//52 22//40 15//17 37//20
f 62//74 49//59 1//21 14//36
