# Blender v3.0.0 OBJ File: ''
# www.blender.org
o Cube
v 0.335000 0.335000 -0.500000
v 0.335000 0.500000 -0.335000
v 0.500000 0.335000 -0.335000
v 0.335000 0.451673 -0.451673
v 0.430263 0.430263 -0.430263
v 0.451673 0.451673 -0.335000
v 0.451673 0.335000 -0.451673
v 0.335000 -0.500000 -0.335000
v 0.335000 -0.335000 -0.500000
v 0.500000 -0.335000 -0.335000
v 0.335000 -0.451673 -0.451673
v 0.430263 -0.430263 -0.430263
v 0.451673 -0.335000 -0.451673
v 0.451673 -0.451673 -0.335000
v 0.500000 0.335000 0.335000
v 0.335000 0.500000 0.335000
v 0.335000 0.335000 0.500000
v 0.451673 0.451673 0.335000
v 0.430263 0.430263 0.430263
v 0.335000 0.451673 0.451673
v 0.451673 0.335000 0.451673
v 0.500000 -0.335000 0.335000
v 0.335000 -0.335000 0.500000
v 0.335000 -0.500000 0.335000
v 0.451673 -0.335000 0.451673
v 0.430263 -0.430263 0.430263
v 0.335000 -0.451673 0.451673
v 0.451673 -0.451673 0.335000
v -0.335000 0.335000 -0.500000
v -0.500000 0.335000 -0.335000
v -0.335000 0.500000 -0.335000
v -0.451673 0.335000 -0.451673
v -0.430263 0.430263 -0.430263
v -0.451673 0.451673 -0.335000
v -0.335000 0.451673 -0.451673
v -0.500000 -0.335000 -0.335000
v -0.335000 -0.335000 -0.500000
v -0.335000 -0.500000 -0.335000
v -0.451673 -0.335000 -0.451673
v -0.430263 -0.430263 -0.430263
v -0.335000 -0.451673 -0.451673
v -0.451673 -0.451673 -0.335000
v -0.500000 0.335000 0.335000
v -0.335000 0.335000 0.500000
v -0.335000 0.500000 0.335000
v -0.451673 0.335000 0.451673
v -0.430263 0.430263 0.430263
v -0.335000 0.451673 0.451673
v -0.451673 0.451673 0.335000
v -0.335000 -0.500000 0.335000
v -0.335000 -0.335000 0.500000
v -0.500000 -0.335000 0.335000
v -0.335000 -0.451673 0.451673
v -0.430263 -0.430263 0.430263
v -0.451673 -0.335000 0.451673
v -0.451673 -0.451673 0.335000
vn 0.0000 -1.0000 0.0000
vn -1.0000 0.0000 0.0000
vn 0.0000 0.0000 1.0000
vn 0.0000 1.0000 0.0000
vn 1.0000 0.0000 0.0000
vn 0.3251 0.3251 -0.8881
vn 0.3251 0.8881 -0.3251
vn 0.8881 0.3251 -0.3251
vn 0.3251 -0.8881 -0.3251
vn 0.3251 -0.3251 -0.8881
vn 0.8881 -0.3251 -0.3251
vn 0.8881 0.3251 0.3251
vn 0.3251 0.8881 0.3251
vn 0.3251 0.3251 0.8881
vn 0.8881 -0.3251 0.3251
vn 0.3251 -0.3251 0.8881
vn 0.3251 -0.8881 0.3251
vn -0.3251 0.3251 -0.8881
vn -0.8881 0.3251 -0.3251
vn -0.3251 0.8881 -0.3251
vn -0.8881 -0.3251 -0.3251
vn -0.3251 -0.3251 -0.8881
vn -0.3251 -0.8881 -0.3251
vn -0.8881 0.3251 0.3251
vn -0.3251 0.3251 0.8881
vn -0.3251 0.8881 0.3251
vn -0.3251 -0.8881 0.3251
vn -0.3251 -0.3251 0.8881
vn -0.8881 -0.3251 0.3251
vn -0.3827 -0.9239 0.0000
vn -0.9239 -0.3827 0.0000
vn 0.0000 -0.9239 -0.3827
vn 0.0000 -0.3827 -0.9239
vn 0.9239 0.0000 -0.3827
vn 0.3827 0.0000 -0.9239
vn -0.3827 0.0000 0.9239
vn -0.9239 0.0000 0.3827
vn 0.3827 0.0000 0.9239
vn 0.9239 0.0000 0.3827
vn -0.3827 0.0000 -0.9239
vn -0.9239 0.0000 -0.3827
vn 0.0000 0.9239 0.3827
vn 0.0000 0.3827 0.9239
vn 0.3827 0.9239 0.0000
vn 0.9239 0.3827 0.0000
vn 0.0000 -0.9239 0.3827
vn 0.0000 -0.3827 0.9239
vn -0.3827 0.9239 0.0000
vn -0.9239 0.3827 0.0000
vn 0.0000 0.9239 -0.3827
vn 0.0000 0.3827 -0.9239
vn 0.3827 -0.9239 0.0000
vn 0.9239 -0.3827 0.0000
vn 0.0000 0.0000 -1.0000
s off
f 38//1 8//1 24//1 50//1
f 52//2 43//2 30//2 36//2
f 23//3 17//3 44//3 51//3
f 2//4 31//4 45//4 16//4
f 10//5 3//5 15//5 22//5
f 1//6 4//6 5//6 7//6
f 2//7 6//7 5//7 4//7
f 3//8 7//8 5//8 6//8
f 8//9 11//9 12//9 14//9
f 9//10 13//10 12//10 11//10
f 10//11 14//11 12//11 13//11
f 15//12 18//12 19//12 21//12
f 16//13 20//13 19//13 18//13
f 17//14 21//14 19//14 20//14
f 22//15 25//15 26//15 28//15
f 23//16 27//16 26//16 25//16
f 24//17 28//17 26//17 27//17
f 29//18 32//18 33//18 35//18
f 30//19 34//19 33//19 32//19
f 31//20 35//20 33//20 34//20
f 36//21 39//21 40//21 42//21
f 37//22 41//22 40//22 39//22
f 38//23 42//23 40//23 41//23
f 43//24 46//24 47//24 49//24
f 44//25 48//25 47//25 46//25
f 45//26 49//26 47//26 48//26
f 50//27 53//27 54//27 56//27
f 51//28 55//28 54//28 53//28
f 52//29 56//29 54//29 55//29
f 38//30 50//30 56//30 42//30
f 42//31 56//31 52//31 36//31
f 8//32 38//32 41//32 11//32
f 11//33 41//33 37//33 9//33
f 3//34 10//34 13//34 7//34
f 7//35 13//35 9//35 1//35
f 51//36 44//36 46//36 55//36
f 55//37 46//37 43//37 52//37
f 17//38 23//38 25//38 21//38
f 21//39 25//39 22//39 15//39
f 29//40 37//40 39//40 32//40
f 32//41 39//41 36//41 30//41
f 16//42 45//42 48//42 20//42
f 20//43 48//43 44//43 17//43
f 2//44 16//44 18//44 6//44
f 6//45 18//45 15//45 3//45
f 50//46 24//46 27//46 53//46
f 53//47 27//47 23//47 51//47
f 45//48 31//48 34//48 49//48
f 49//49 34//49 30//49 43//49
f 31//50 2//50 4//50 35//50
f 35//51 4//51 1//51 29//51
f 24//52 8//52 14//52 28//52
f 28//53 14//53 10//53 22//53
f 37//54 29//54 1//54 9//54
