# Blender v3.0.0 OBJ File: ''
# www.blender.org
o Cube_Cube.002
v 8.343075 -0.397947 -0.548641
v -8.243074 -0.397947 -0.548810
v -8.243074 -0.397947 -0.391831
v 8.343075 -0.397947 -0.391831
v -8.243074 0.397947 -0.548818
v 8.343075 0.397947 -0.548649
v 8.343075 0.397947 -0.391831
v -8.243074 0.397947 -0.391831
v 9.706689 0.269091 1.439726
v 9.706689 0.269091 0.926415
v 11.070303 0.137916 1.226058
v 11.070303 0.137916 1.939777
v -8.243074 0.397947 0.391831
v 8.343075 0.397947 0.391831
v 8.343075 0.397947 0.548649
v -8.243074 0.397947 0.548818
v 8.343075 -0.397947 0.391831
v -8.243074 -0.397947 0.391831
v -8.243074 -0.397947 0.548810
v 8.343075 -0.397947 0.548641
v -8.243074 0.297947 -0.653052
v -8.243074 -0.297947 -0.653052
v 8.243074 -0.297947 -0.653052
v 8.243074 0.297947 -0.653052
v 12.318209 -0.002883 -2.043429
v 12.318209 -0.243106 -2.043429
v 15.020733 -0.161839 -1.805223
v 15.020733 0.027010 -1.805223
v 11.070303 -0.202512 2.043429
v 11.070303 0.037701 2.043429
v 12.318209 -0.002883 2.043429
v 12.318209 -0.243106 2.043429
v 11.070303 -0.302678 1.226058
v 11.070303 -0.302678 1.939768
v 12.318209 -0.343277 1.940292
v 12.218355 -0.343150 1.331473
v 11.070303 0.137916 -1.226058
v 11.070303 0.137916 -1.939777
v 12.318209 0.097317 -1.940299
v 12.218287 0.098390 -1.331480
v 15.020733 0.027063 -0.361044
v 15.020733 -0.161778 -0.361044
v 17.623272 0.084609 -0.315166
v 17.623272 0.223977 -0.315166
v 11.070303 -0.302678 -1.939768
v 11.070303 -0.302678 -1.226058
v 12.218355 -0.343150 -1.331473
v 12.318209 -0.343277 -1.940292
v 12.218287 0.098390 1.331480
v 12.318209 0.097317 1.940299
v 9.706689 0.269091 -0.926415
v 9.706689 0.269091 -1.439726
v 9.706689 -0.168920 1.544025
v 9.706689 0.168862 1.544025
v 12.418069 -0.001718 1.220776
v 12.418069 -0.240037 1.220777
v 15.020733 -0.161779 1.083133
v 15.020733 0.027064 1.083133
v 12.418193 -0.240033 0.406923
v 12.418193 -0.001717 0.406923
v 15.020733 0.027063 0.361044
v 15.020733 -0.161778 0.361044
v 12.418193 -0.001717 -0.406923
v 12.418193 -0.240033 -0.406923
v 15.020733 -0.262024 1.183272
v 15.020733 -0.262024 1.702377
v 17.623703 -0.015603 1.473039
v 17.623703 -0.015603 1.045613
v 11.070303 0.137916 -0.408686
v 12.218287 0.098390 -0.310432
v 15.020733 0.127209 1.702383
v 15.020733 0.127209 1.183273
v 17.623543 0.324148 1.045622
v 17.623543 0.324148 1.473060
v 11.070303 0.137916 0.408686
v 12.218287 0.098390 0.310431
v 9.706689 0.168862 -1.544025
v 9.706689 -0.168920 -1.544025
v 11.070303 -0.202512 -2.043429
v 11.070303 0.037701 -2.043429
v 9.706689 -0.269091 -0.926415
v 9.706689 -0.269091 -0.308805
v 11.070303 -0.302678 -0.408686
v 9.706689 -0.269091 0.308805
v 11.070303 -0.302678 0.408686
v 9.706689 -0.269091 0.926415
v 9.706689 -0.269091 1.439716
v 9.706689 0.269091 0.308805
v 9.706689 0.269091 -0.308805
v 9.706689 -0.269091 -1.439716
v 12.218355 -0.343150 -0.310429
v 12.218355 -0.343150 0.310429
v 15.020733 -0.262024 0.261029
v 15.020733 -0.262024 -0.261029
v 17.623644 0.084586 -1.575796
v 17.623644 0.223954 -1.575796
v 8.426789 -0.289860 0.707750
v 8.426789 0.289805 0.707750
v 12.318209 -0.002683 0.508686
v 12.318209 -0.243277 0.508686
v 12.318209 -0.243277 1.126058
v 12.318209 -0.002683 1.126058
v -8.243074 -0.397947 -0.130610
v 8.343075 -0.397947 -0.130610
v -8.243074 -0.397947 0.130610
v 8.343075 -0.397947 0.130610
v -8.343075 0.297947 -0.391831
v -8.343075 -0.297947 -0.391831
v -8.343075 -0.297947 -0.553052
v -8.343075 0.297947 -0.553052
v -8.343075 0.297947 0.130610
v -8.343075 -0.297947 0.130610
v -8.343075 -0.297947 -0.130610
v -8.343075 0.297947 -0.130610
v -8.343075 0.297947 0.391831
v -8.343075 -0.297947 0.391831
v 8.243074 0.297947 0.653052
v 8.243074 -0.297947 0.653052
v -8.243074 -0.297947 0.653052
v -8.243074 0.297947 0.653052
v -8.243074 0.397947 0.130610
v 8.343075 0.397947 0.130610
v -8.243074 0.397947 -0.130610
v 8.343075 0.397947 -0.130610
v 17.623396 0.084620 0.945490
v 17.623396 0.223987 0.945490
v 15.020733 -0.262024 -1.702377
v 15.020733 -0.262024 -1.183272
v 17.623703 -0.015603 -1.045613
v 17.623703 -0.015603 -1.473039
v 17.623272 0.223977 0.315166
v 17.623272 0.084609 0.315166
v 17.723257 0.231693 -1.467016
v 17.723257 0.093821 -1.467016
v 17.723257 0.093821 -1.040209
v 17.723257 0.231693 -1.040209
v 17.623703 -0.015603 0.215143
v 17.623703 -0.015603 -0.215143
v 15.020733 -0.161779 -1.083133
v 15.020733 0.027064 -1.083133
v 17.623396 0.223987 -0.945490
v 17.623396 0.084620 -0.945490
v 17.723257 0.231693 -0.213403
v 17.723257 0.093821 -0.213403
v 17.723257 0.093821 0.213403
v 17.723257 0.231693 0.213403
v 15.020733 0.127209 0.261029
v 15.020733 0.127209 -0.261029
v 17.623543 0.324148 -0.215145
v 17.623543 0.324148 0.215145
v 17.723257 0.231693 1.040209
v 17.723257 0.093821 1.040209
v 17.723257 0.093821 1.467016
v 17.723257 0.231693 1.467016
v 15.020733 0.127209 -1.183273
v 15.020733 0.127209 -1.702383
v 17.623543 0.324148 -1.473060
v 17.623543 0.324148 -1.045622
v 15.020733 -0.161839 1.805223
v 15.020733 0.027010 1.805223
v 17.623644 0.223954 1.575796
v 17.623644 0.084586 1.575796
v 8.426789 0.289805 -0.707750
v 8.426789 -0.289860 -0.707750
v 12.318209 -0.002683 -1.126058
v 12.318209 -0.243277 -1.126058
v 12.318209 -0.243277 -0.508686
v 12.318209 -0.002683 -0.508686
v 12.418069 -0.240037 -1.220776
v 12.418069 -0.001718 -1.220776
v -8.343075 0.297947 0.553052
v -8.343075 -0.297947 0.553052
vn 0.0544 -0.9985 -0.0000
vn 0.0471 -0.9989 -0.0000
vn 0.0000 -1.0000 -0.0000
vn -0.0000 1.0000 0.0000
vn 0.0471 0.9989 0.0000
vn 0.0544 0.9985 0.0000
vn 0.0952 0.9955 0.0000
vn 0.0607 0.9982 -0.0010
vn 0.0649 0.9979 -0.0004
vn 0.0949 0.9955 0.0000
vn 0.0000 0.0000 -1.0000
vn -0.1422 0.0000 -0.9898
vn 0.0436 0.0000 -0.9990
vn 0.0878 0.0000 -0.9961
vn 0.0440 0.0000 -0.9990
vn -0.1715 0.0000 0.9852
vn 0.0440 0.0000 0.9990
vn 0.0436 0.0000 0.9990
vn -0.1813 0.0000 0.9834
vn -0.0296 -0.9996 0.0006
vn -0.0150 -0.9999 0.0001
vn 0.0001 -1.0000 -0.0003
vn -0.0299 -0.9996 0.0014
vn 0.0649 0.9979 0.0004
vn 0.0203 0.9998 0.0001
vn 0.0098 1.0000 -0.0002
vn 0.0607 0.9982 0.0010
vn 0.0176 0.0000 -0.9998
vn -0.0299 -0.9996 -0.0014
vn 0.0001 -1.0000 0.0003
vn -0.0150 -0.9999 -0.0001
vn -0.0296 -0.9996 -0.0006
vn 0.0098 1.0000 0.0002
vn 0.0203 0.9998 -0.0001
vn -0.4501 0.0000 0.8930
vn -0.4539 0.0000 0.8911
vn -0.0528 -0.0000 -0.9986
vn 0.0176 -0.0000 0.9998
vn 0.0629 -0.9980 -0.0013
vn 0.0942 -0.9955 -0.0000
vn 0.0600 -0.9982 -0.0014
vn 0.0651 0.9979 0.0000
vn 0.0196 0.9998 0.0000
vn -0.0412 0.9992 0.0010
vn -0.0754 0.9971 0.0000
vn -0.0441 0.9990 0.0009
vn -0.4539 0.0000 -0.8911
vn -0.1813 0.0000 -0.9834
vn -0.1715 0.0000 -0.9852
vn -0.4501 0.0000 -0.8930
vn 0.0348 -0.9994 -0.0000
vn -0.0299 -0.9996 -0.0000
vn 0.0159 -0.9999 -0.0000
vn -0.0140 -0.9999 -0.0000
vn 0.0613 -0.9981 -0.0000
vn -0.3538 0.1196 0.9276
vn -0.4708 0.1187 0.8742
vn 1.0000 -0.0000 0.0000
vn -1.0000 0.0000 0.0000
vn -0.0722 0.1163 0.9906
vn 0.0000 -0.0000 1.0000
vn -0.0723 -0.1163 0.9906
vn 0.0600 -0.9982 0.0014
vn 0.0629 -0.9980 0.0013
vn -0.0528 0.0000 0.9986
vn -0.0425 0.9991 0.0000
vn -0.0441 0.9990 -0.0009
vn -0.0412 0.9992 -0.0010
vn 0.0878 0.0000 0.9961
vn -0.4154 0.0000 -0.9096
vn -0.5692 0.5933 0.5692
vn -0.5692 -0.5933 0.5692
vn -0.5692 0.5933 -0.5692
vn -0.5692 -0.5933 -0.5692
vn -0.3039 0.7059 0.6398
vn -0.0523 0.7744 0.6305
vn -0.0244 0.6896 0.7238
vn -0.3038 -0.7061 0.6396
vn -0.0526 -0.7457 0.6642
vn -0.1480 -0.7408 0.6552
vn -0.0525 0.7457 -0.6643
vn -0.1480 0.7407 -0.6553
vn -0.3039 0.7059 -0.6398
vn -0.1199 -0.8117 -0.5716
vn -0.0526 -0.7457 -0.6642
vn -0.2396 -0.6516 -0.7197
vn 0.2839 0.9078 -0.3086
vn 0.3036 0.9020 0.3069
vn 0.3036 0.9020 -0.3069
vn 0.2839 0.9078 0.3086
vn 0.3061 -0.9062 0.2918
vn 0.3245 -0.9003 -0.2901
vn 0.3245 -0.9003 0.2901
vn 0.3061 -0.9062 -0.2918
vn 0.6382 -0.5510 -0.5376
vn 0.5770 0.5850 -0.5700
vn 0.5249 0.6014 0.6023
vn 0.5933 -0.5680 -0.5704
vn 0.6382 -0.5510 0.5376
vn 0.5770 0.5850 0.5700
vn 0.5249 0.6014 -0.6023
vn 0.5547 0.5871 0.5895
vn 0.5547 0.5871 -0.5895
vn 0.5933 -0.5680 0.5704
vn 0.6185 -0.5538 -0.5575
vn 0.6185 -0.5538 0.5575
vn -0.7071 0.7071 0.0000
vn -0.7071 -0.0000 0.7071
vn -0.7071 -0.7071 -0.0000
vn -0.7071 0.0000 -0.7071
vn 0.0000 0.7219 -0.6920
vn 0.0000 -0.7219 -0.6920
vn 0.0000 0.7219 0.6920
vn 0.0000 -0.7219 0.6920
vn -0.2925 0.6892 0.6629
vn -0.2484 0.6978 0.6718
vn -0.0676 0.7173 0.6935
vn -0.0899 0.7162 0.6921
vn -0.3210 -0.6828 0.6563
vn -0.2994 -0.6876 0.6615
vn -0.2484 0.6978 -0.6718
vn -0.2925 0.6892 -0.6629
vn -0.0899 0.7162 -0.6921
vn -0.0676 0.7173 -0.6935
vn -0.2994 -0.6876 -0.6615
vn -0.3210 -0.6828 -0.6563
vn -0.1352 -0.7125 0.6885
vn -0.1515 -0.7110 0.6867
vn 0.0307 -0.7172 0.6962
vn 0.0285 -0.7173 0.6962
vn 0.0285 -0.7173 -0.6962
vn 0.0307 -0.7172 -0.6962
vn -0.1515 -0.7110 -0.6867
vn -0.1352 -0.7125 -0.6885
vn 0.0385 0.7169 -0.6961
vn 0.0381 0.7169 -0.6961
vn 0.0381 0.7169 0.6961
vn 0.0385 0.7169 0.6961
vn 0.7111 0.7030 0.0000
vn 0.7072 -0.7070 -0.0000
vn 0.6882 0.0000 0.7255
vn 0.7133 0.0000 -0.7008
vn 0.7133 0.0000 0.7008
vn 0.6882 -0.0000 -0.7255
vn 0.7375 0.0000 -0.6754
vn 0.6799 0.7333 0.0000
vn 0.7397 -0.6730 -0.0000
vn 0.7375 0.0000 0.6754
vn 0.0290 0.7161 0.6974
vn 0.0318 0.7161 0.6973
vn 0.0073 0.7161 0.6980
vn 0.1058 -0.7125 0.6937
vn 0.1052 -0.7125 0.6937
vn -0.0677 0.7036 0.7073
vn -0.0679 0.7036 0.7073
vn -0.0905 0.7042 0.7042
vn 0.0055 -0.7095 0.7047
vn 0.0078 -0.7092 0.7049
vn -0.0161 -0.7120 0.7020
vn -0.0173 0.7046 -0.7093
vn -0.0186 0.7047 -0.7092
vn -0.0410 0.7060 -0.7070
vn -0.0173 0.7046 0.7093
vn -0.0186 0.7047 0.7092
vn 0.0050 0.7030 0.7112
vn 0.1058 -0.7125 -0.6937
vn 0.1052 -0.7125 -0.6937
vn 0.1282 -0.7102 -0.6922
vn 0.0290 0.7161 -0.6974
vn 0.0318 0.7161 -0.6973
vn 0.0567 -0.7078 0.7042
vn 0.0558 -0.7079 0.7041
vn 0.0791 -0.7041 0.7057
vn 0.0442 -0.6941 -0.7185
vn 0.0433 -0.7222 -0.6903
vn 0.0334 -0.7113 -0.7021
vn -0.0679 0.7036 -0.7073
vn -0.0677 0.7036 -0.7073
vn -0.0905 0.7042 -0.7042
vn 0.0078 -0.7092 -0.7049
vn 0.0055 -0.7095 -0.7047
vn -0.0161 -0.7120 -0.7020
vn 0.1282 -0.7102 0.6922
vn -0.0450 0.7027 -0.7101
vn 0.0295 -0.7064 -0.7072
vn 0.0050 0.7030 -0.7112
vn -0.0410 0.7060 0.7070
vn 0.0334 -0.7113 0.7021
vn 0.0791 -0.7041 -0.7057
vn -0.0450 0.7027 0.7101
vn 0.0295 -0.7064 0.7072
vn 0.0073 0.7161 -0.6980
s 1
f 1//1 4//2 3//3 2//3
f 5//4 8//4 7//5 6//6
f 9//7 12//8 11//9 10//10
f 13//4 16//4 15//6 14//5
f 17//2 20//1 19//3 18//3
f 21//11 24//12 23//12 22//11
f 25//13 28//14 27//14 26//15
f 29//16 32//17 31//18 30//19
f 33//20 36//21 35//22 34//23
f 37//24 40//25 39//26 38//27
f 41//28 44//28 43//28 42//28
f 45//29 48//30 47//31 46//32
f 12//8 50//33 49//34 11//9
f 51//10 37//24 38//27 52//7
f 53//35 29//16 30//19 54//36
f 55//37 58//37 57//37 56//37
f 59//38 62//38 61//38 60//38
f 63//28 41//28 42//28 64//28
f 65//39 68//40 67//40 66//41
f 69//42 70//43 40//25 37//24
f 71//44 74//45 73//45 72//46
f 11//9 49//34 76//43 75//42
f 77//47 80//48 79//49 78//50
f 81//51 46//32 83//52 82//51
f 82//51 83//52 85//52 84//51
f 84//51 85//52 33//20 86//51
f 86//51 33//20 34//23 87//53
f 10//10 11//9 75//42 88//10
f 88//10 75//42 69//42 89//10
f 89//10 69//42 37//24 51//10
f 90//53 45//29 46//32 81//51
f 91//54 94//55 93//55 92//54
f 85//52 92//54 36//21 33//20
f 28//14 96//14 95//14 27//14
f 97//56 53//35 54//36 98//57
f 99//58 102//58 101//58 100//58
f 4//2 104//2 103//3 3//3
f 104//2 106//2 105//3 103//3
f 107//59 110//59 109//59 108//59
f 111//59 114//59 113//59 112//59
f 115//59 111//59 112//59 116//59
f 106//2 17//2 18//3 105//3
f 117//60 120//61 119//61 118//62
f 121//4 13//4 14//5 122//5
f 123//4 121//4 122//5 124//5
f 8//4 123//4 124//5 7//5
f 58//37 126//37 125//37 57//37
f 127//63 130//40 129//40 128//64
f 62//38 132//38 131//38 61//38
f 133//58 136//58 135//58 134//58
f 94//55 138//40 137//40 93//55
f 139//65 142//65 141//65 140//65
f 143//58 146//58 145//58 144//58
f 147//66 150//45 149//45 148//66
f 151//58 154//58 153//58 152//58
f 155//67 158//45 157//45 156//68
f 159//69 162//69 161//69 160//69
f 124//5 89//10 51//10 7//5
f 122//5 88//10 89//10 124//5
f 14//5 10//10 88//10 122//5
f 17//2 86//51 87//53 20//1
f 106//2 84//51 86//51 17//2
f 104//2 82//51 84//51 106//2
f 4//2 81//51 82//51 104//2
f 80//48 25//13 26//15 79//49
f 7//5 51//10 52//7 6//6
f 163//70 77//47 78//50 164//70
f 1//1 90//53 81//51 4//2
f 15//6 9//7 10//10 14//5
f 76//43 147//66 148//66 70//43
f 114//59 107//59 108//59 113//59
f 36//21 65//39 66//41 35//22
f 50//33 71//44 72//46 49//34
f 165//58 168//58 167//58 166//58
f 169//65 139//65 140//65 170//65
f 83//52 91//54 92//54 85//52
f 75//42 76//43 70//43 69//42
f 40//25 155//67 156//68 39//26
f 32//17 159//69 160//69 31//18
f 48//30 127//63 128//64 47//31
f 46//32 47//31 91//54 83//52
f 16//71 171//71 120//71
f 172//72 19//72 119//72
f 110//73 5//73 21//73
f 2//74 109//74 22//74
f 98//75 15//76 117//77
f 97//78 118//79 20//80
f 24//81 6//82 163//83
f 1//84 23//85 164//86
f 102//87 49//87 55//87
f 99//88 60//88 76//88
f 168//89 70//89 63//89
f 165//90 170//90 40//90
f 166//91 47//91 169//91
f 91//92 167//92 64//92
f 100//93 92//93 59//93
f 36//94 101//94 56//94
f 95//95 134//95 130//95
f 96//96 157//96 133//96
f 158//97 141//97 136//97
f 68//98 125//98 152//98
f 67//99 153//99 162//99
f 161//100 154//100 74//100
f 73//101 151//101 126//101
f 150//102 131//102 146//102
f 149//103 143//103 44//103
f 129//104 135//104 142//104
f 138//105 43//105 144//105
f 137//106 145//106 132//106
f 13//107 115//107 171//107 16//107
f 120//108 171//108 172//108 119//108
f 3//109 108//109 109//109 2//109
f 22//110 109//110 110//110 21//110
f 6//82 24//81 21//111 5//111
f 2//112 22//112 23//85 1//84
f 164//70 23//12 24//12 163//70
f 118//62 97//56 98//57 117//60
f 16//113 120//113 117//77 15//76
f 20//80 118//79 119//114 19//114
f 9//115 54//116 30//117 12//118
f 87//119 53//120 97//78 20//80
f 77//121 52//122 38//123 80//124
f 78//125 90//126 1//84 164//86
f 29//127 34//128 35//129 32//130
f 26//131 48//132 45//133 79//134
f 39//135 25//136 80//124 38//123
f 12//118 30//117 31//137 50//138
f 5//107 110//107 107//107 8//107
f 8//107 107//107 114//107 123//107
f 123//107 114//107 111//107 121//107
f 121//107 111//107 115//107 13//107
f 19//109 172//109 116//109 18//109
f 18//109 116//109 112//109 105//109
f 105//109 112//109 113//109 103//109
f 103//109 113//109 108//109 3//109
f 49//139 102//139 99//139 76//139
f 70//139 168//139 165//139 40//139
f 47//140 166//140 167//140 91//140
f 92//140 100//140 101//140 36//140
f 166//141 169//141 170//141 165//141
f 64//142 167//142 168//142 63//142
f 100//143 59//143 60//143 99//143
f 56//144 101//144 102//144 55//144
f 134//145 95//145 96//145 133//145
f 158//146 136//146 133//146 157//146
f 68//147 152//147 153//147 67//147
f 162//148 153//148 154//148 161//148
f 74//146 154//146 151//146 73//146
f 150//146 146//146 143//146 149//146
f 130//147 134//147 135//147 129//147
f 138//147 144//147 145//147 137//147
f 142//141 135//141 136//141 141//141
f 144//142 43//142 44//142 143//142
f 132//143 145//143 146//143 131//143
f 152//144 125//144 126//144 151//144
f 71//149 160//150 161//151 74//151
f 66//152 159//153 32//130 35//129
f 155//154 140//155 141//156 158//156
f 128//157 139//158 169//159 47//159
f 41//160 148//161 149//162 44//162
f 61//163 147//164 76//165 60//165
f 127//166 27//167 95//168 130//168
f 156//169 28//170 25//136 39//135
f 62//171 93//172 137//173 132//173
f 42//174 94//175 91//176 64//176
f 58//177 72//178 73//179 126//179
f 57//180 65//181 36//182 56//182
f 15//76 98//75 54//116 9//115
f 34//128 29//127 53//120 87//119
f 163//83 6//82 52//122 77//121
f 79//134 45//133 90//126 78//125
f 50//138 31//137 160//150 71//149
f 67//183 162//183 159//153 66//152
f 55//184 49//184 72//178 58//177
f 125//185 68//185 65//181 57//180
f 63//186 70//186 148//161 41//160
f 131//187 150//187 147//164 61//163
f 59//188 92//188 93//172 62//171
f 43//189 138//189 94//175 42//174
f 40//190 170//190 140//155 155//154
f 129//191 142//191 139//158 128//157
f 48//132 26//131 27//167 127//166
f 157//192 96//192 28//170 156//169
f 171//59 115//59 116//59 172//59
