# Blender v3.0.0 OBJ File: ''
# www.blender.org
o Cube_Cube.002
v -8.343075 0.308823 0.563927
v -8.253951 0.308823 0.653052
v -8.253951 0.397947 0.553317
v -8.343075 -0.308823 0.563927
v -8.253951 -0.397947 0.553317
v -8.253951 -0.308823 0.653052
v -8.343075 0.308823 -0.563927
v -8.253951 0.397947 -0.563932
v -8.253951 0.308437 -0.653052
v -8.343075 -0.308823 -0.563927
v -8.253951 -0.308437 -0.653052
v -8.253951 -0.397947 -0.563932
v 3.698036 0.282405 0.719365
v 3.638490 0.397947 0.552892
v 3.549366 0.308823 0.653052
v 3.698036 -0.282405 0.719365
v 3.549366 -0.308823 0.653052
v 3.638490 -0.397947 0.552892
v 3.638490 0.397947 -0.563932
v 3.638490 0.308422 -0.653052
v 3.638490 -0.308422 -0.653052
v 3.638490 -0.397947 -0.563932
v 4.424414 -0.151040 -0.653052
v 4.424414 -0.234371 -0.564138
v 4.424414 0.234371 -0.564138
v 4.424414 0.151040 -0.653052
v 4.513538 -0.000000 1.528292
v 4.364868 -0.020378 1.461979
v 4.424414 -0.096280 1.425209
v 4.513538 0.000000 1.528292
v 4.424414 0.096280 1.425209
v 4.364868 0.020378 1.461979
v 15.617045 -0.151099 -0.653052
v 15.617045 -0.234371 -0.564138
v 15.617045 0.234371 -0.564138
v 15.617045 0.151099 -0.653052
v 15.617045 -0.096305 1.424846
v 15.617045 -0.000000 1.528292
v 15.617045 0.000000 1.528292
v 15.617045 0.096305 1.424846
v 17.466753 -0.151133 -0.653052
v 17.459957 -0.230287 -0.564517
v 17.459957 0.230287 -0.564517
v 17.466753 0.151133 -0.653052
v 17.374733 -0.101672 0.545774
v 17.366419 -0.000000 0.654094
v 17.366419 0.000000 0.654094
v 17.374733 0.101672 0.545774
v 17.853926 -0.151144 -0.653052
v 17.930517 -0.130519 -0.564813
v 17.840693 -0.221862 -0.565905
v 17.853926 0.151144 -0.653052
v 17.840693 0.221862 -0.565905
v 17.930517 0.130519 -0.564813
v 17.787348 -0.000000 0.123153
v 17.755569 -0.113577 0.069603
v 17.855249 -0.016930 -0.034924
v 17.787348 0.000000 0.123154
v 17.855249 0.016930 -0.034924
v 17.755569 0.113577 0.069603
vn 0.0000 0.0000 -1.0000
vn -0.7441 0.0000 0.6681
vn 0.0000 1.0000 0.0000
vn 0.0000 -1.0000 0.0000
vn 0.0000 0.0000 1.0000
vn 0.2616 0.9642 0.0429
vn 0.2616 -0.9642 0.0429
vn 0.4470 0.0000 0.8945
vn -0.0000 -0.9976 0.0692
vn 0.0104 -0.9969 0.0778
vn 0.0086 -0.9970 0.0763
vn -0.0000 0.9976 0.0692
vn 0.0086 0.9970 0.0763
vn 0.0104 0.9969 0.0778
vn 0.0543 -0.9918 0.1156
vn 0.0846 -0.9862 0.1421
vn 0.0350 -0.9945 0.0988
vn 0.0350 0.9945 0.0988
vn 0.0543 0.9918 0.1156
vn 0.0846 0.9862 0.1421
vn 0.9901 0.0000 0.1406
vn 0.0083 -0.9999 0.0066
vn -0.5545 0.6205 0.5545
vn -0.5545 -0.6205 0.5545
vn -0.5765 0.5765 -0.5790
vn -0.5765 -0.5765 -0.5790
vn -0.1245 0.7937 0.5954
vn -0.0590 0.7709 0.6342
vn -0.0493 0.7671 0.6396
vn -0.1245 -0.7937 0.5954
vn -0.0493 -0.7671 0.6396
vn -0.0590 -0.7709 0.6342
vn -0.2641 -0.5804 0.7704
vn -0.3576 -0.6258 0.6932
vn -0.3629 -0.6282 0.6883
vn -0.2641 0.5804 0.7704
vn -0.3629 0.6282 0.6883
vn -0.3576 0.6258 0.6932
vn 0.6507 -0.6349 -0.4164
vn 0.6507 0.6349 -0.4164
vn 0.7411 -0.4602 0.4889
vn 0.7487 -0.4564 0.4807
vn 0.8186 -0.4159 0.3962
vn 0.7411 0.4602 0.4889
vn 0.8186 0.4158 0.3962
vn 0.7487 0.4564 0.4807
vn -0.7071 0.0000 0.7071
vn -0.7071 0.0000 -0.7071
vn 0.0757 0.7097 -0.7004
vn 0.0000 0.7055 -0.7087
vn 0.0691 0.7095 -0.7013
vn 0.0000 -0.7055 -0.7087
vn 0.0757 -0.7097 -0.7004
vn 0.0691 -0.7095 -0.7013
vn -0.4074 0.0000 0.9133
vn 0.0000 0.7464 0.6655
vn 0.0000 -0.7464 0.6655
vn -0.7071 0.7071 0.0000
vn -0.7071 -0.7071 0.0000
vn -0.4326 -0.6563 0.6182
vn 0.0757 -0.7213 -0.6884
vn 0.0694 -0.7222 -0.6882
vn -0.4326 0.6563 0.6182
vn 0.0757 0.7213 -0.6884
vn 0.0694 0.7222 -0.6882
vn 0.0004 0.7337 -0.6795
vn 0.0000 0.7314 0.6820
vn 0.0004 -0.7337 -0.6795
vn 0.0000 -0.7314 0.6820
vn 0.0038 0.7490 -0.6625
vn 0.0041 0.7500 -0.6615
vn 0.3252 0.6844 0.6526
vn 0.0041 -0.7500 -0.6615
vn 0.0038 -0.7490 -0.6625
vn 0.3252 -0.6844 0.6526
vn 0.7552 0.0000 -0.6555
vn 0.9188 0.0001 0.3947
vn 0.7451 0.6288 0.2223
vn 0.7451 -0.6288 0.2223
vn 0.0072 -0.7612 -0.6485
vn 0.0072 0.7612 -0.6485
vn 0.6809 -0.4862 0.5478
vn 0.6809 0.4862 0.5478
vn -1.0000 0.0000 0.0000
s 1
f 20//1 26//1 23//1 21//1
f 16//2 28//2 32//2 13//2
f 19//3 8//3 3//3 14//3
f 9//1 20//1 21//1 11//1
f 12//4 22//4 18//4 5//4
f 15//5 2//5 6//5 17//5
f 27//5 38//5 39//5 30//5
f 14//6 31//6 25//6 19//6
f 22//7 24//7 29//7 18//7
f 26//1 36//1 33//1 23//1
f 38//8 46//8 47//8 39//8
f 24//9 34//10 37//11 29//9
f 31//12 40//13 35//14 25//12
f 36//1 44//1 41//1 33//1
f 42//15 51//16 56//16 45//17
f 34//10 42//15 45//17 37//11
f 40//13 48//18 43//19 35//14
f 44//1 52//1 49//1 41//1
f 48//18 60//20 53//20 43//19
f 54//21 59//21 57//21 50//21
f 46//22 55//22 58//22 47//22
f 1//23 2//23 3//23
f 4//24 5//24 6//24
f 7//25 8//25 9//25
f 10//26 11//26 12//26
f 13//27 14//28 15//29
f 16//30 17//31 18//32
f 27//33 28//34 29//35
f 30//36 31//37 32//38
f 49//39 50//39 51//39
f 52//40 53//40 54//40
f 55//41 56//42 57//43
f 58//44 59//45 60//46
f 1//47 4//47 6//47 2//47
f 10//48 7//48 9//48 11//48
f 20//49 9//50 8//50 19//51
f 11//52 21//53 22//54 12//52
f 16//55 13//55 15//55 17//55
f 2//56 15//29 14//28 3//56
f 17//31 6//57 5//57 18//32
f 7//58 1//58 3//58 8//58
f 4//59 10//59 12//59 5//59
f 27//55 30//55 32//55 28//55
f 18//60 29//35 28//34 16//60
f 24//61 22//54 21//53 23//62
f 13//63 32//38 31//37 14//63
f 19//51 25//64 26//65 20//49
f 25//64 35//66 36//66 26//65
f 40//67 31//67 30//67 39//67
f 23//62 33//68 34//68 24//61
f 29//69 37//69 38//69 27//69
f 35//66 43//70 44//71 36//66
f 48//72 40//72 39//72 47//72
f 33//68 41//73 42//74 34//68
f 37//75 45//75 46//75 38//75
f 49//76 52//76 54//76 50//76
f 57//77 59//77 58//77 55//77
f 59//78 54//78 53//78 60//78
f 50//79 57//79 56//79 51//79
f 41//73 49//80 51//80 42//74
f 52//81 44//71 43//70 53//81
f 45//82 56//42 55//41 46//82
f 47//83 58//44 60//46 48//83
f 4//84 1//84 7//84 10//84
